<?xml version="1.0" encoding="UTF-8" standalone="no"?>
<!-- Created with Inkscape (http://www.inkscape.org/) -->

<svg
   inkscape:export-ydpi="19.200001"
   inkscape:export-xdpi="19.200001"
   inkscape:export-filename="/Users/mattias/Projects/wishlistProjects/logo-frederika-the-great.png"
   sodipodi:docname="logo.svg"
   inkscape:version="1.1 (c4e8f9e, 2021-05-24)"
   id="svg5"
   version="1.1"
   viewBox="0 0 254.00001 254.00001"
   height="254mm"
   width="254mm"
   xmlns:inkscape="http://www.inkscape.org/namespaces/inkscape"
   xmlns:sodipodi="http://sodipodi.sourceforge.net/DTD/sodipodi-0.dtd"
   xmlns="http://www.w3.org/2000/svg"
   xmlns:svg="http://www.w3.org/2000/svg">
  <sodipodi:namedview
     id="namedview7"
     pagecolor="#ffffff"
     bordercolor="#666666"
     borderopacity="1.0"
     inkscape:pageshadow="2"
     inkscape:pageopacity="0.0"
     inkscape:pagecheckerboard="0"
     inkscape:document-units="mm"
     showgrid="false"
     inkscape:zoom="0.67081229"
     inkscape:cx="281.74797"
     inkscape:cy="507.59356"
     inkscape:window-width="1680"
     inkscape:window-height="997"
     inkscape:window-x="108"
     inkscape:window-y="30"
     inkscape:window-maximized="0"
     inkscape:current-layer="layer4"
     units="mm"
     width="300mm"
     inkscape:snap-global="false"
     fit-margin-top="0"
     fit-margin-left="0"
     fit-margin-right="0"
     fit-margin-bottom="0" />
  <defs
     id="defs2">
    <rect
       x="335.41425"
       y="843.75317"
       width="533.68134"
       height="117.76767"
       id="rect2145" />
  </defs>
  <g
     inkscape:label="Ring"
     inkscape:groupmode="layer"
     id="layer1"
     transform="translate(-23.077682,-22.880478)"
     style="display:inline"
     sodipodi:insensitive="true">
    <circle
       style="opacity:1;fill:none;stroke:#000000;stroke-width:4;stroke-miterlimit:4;stroke-dasharray:none"
       id="path635"
       cx="150.07768"
       cy="149.88048"
       r="125" />
    <ellipse
       style="fill:none;stroke:#675491;stroke-width:2.5;stroke-miterlimit:4;stroke-dasharray:none;stroke-opacity:1"
       id="path7369"
       cx="147.29715"
       cy="151.26096"
       rx="117.24033"
       ry="117.63474" />
  </g>
  <g
     inkscape:groupmode="layer"
     id="layer2"
     inkscape:label="Wand"
     transform="translate(-23.077682,-22.880478)"
     style="display:inline">
    <path
       style="fill:none;stroke:#000000;stroke-width:4;stroke-linecap:butt;stroke-linejoin:miter;stroke-miterlimit:4;stroke-dasharray:none;stroke-opacity:1"
       d="M 241.2018,209.36689 194.20352,156.13647"
       id="path6303" />
    <path
       sodipodi:type="star"
       style="fill:#675491;stroke:#000000;stroke-width:5.10435;stroke-miterlimit:4;stroke-dasharray:none;fill-opacity:1"
       id="path7242"
       inkscape:flatsided="false"
       sodipodi:sides="5"
       sodipodi:cx="563.49591"
       sodipodi:cy="420.38586"
       sodipodi:r1="173.98167"
       sodipodi:r2="86.990829"
       sodipodi:arg1="0.21588085"
       sodipodi:arg2="0.84419938"
       inkscape:rounded="0"
       inkscape:randomized="0"
       transform="matrix(0.25489452,0,0,0.25447513,35.840987,32.612653)"
       inkscape:transform-center-x="-1.3957466"
       inkscape:transform-center-y="3.0470786"
       d="m 733.43914,457.65412 -112.15262,27.75212 -40.71948,108.12176 -61.0509,-98.0876 -115.41292,-5.31506 74.42108,-88.3736 -30.60962,-111.40665 107.04567,43.46971 96.49512,-63.53803 -8.26322,115.23936 z" />
  </g>
  <g
     inkscape:groupmode="layer"
     id="layer4"
     inkscape:label="Text"
     style="display:none">
    <text
       xml:space="preserve"
       transform="matrix(0.26458333,0,0,0.26458333,-34.045628,-53.687281)"
       id="text2143"
       style="font-style:normal;font-weight:normal;font-size:96px;line-height:1.25;font-family:sans-serif;text-align:center;white-space:pre;shape-inside:url(#rect2145);display:inline;fill:#000000;fill-opacity:1;stroke:none"
       x="180.375"
       y="0"><tspan
         x="342.30707"
         y="940.4181"
         id="tspan7295"><tspan
           style="font-size:93.3333px;font-family:'Permanent Marker';-inkscape-font-specification:'Permanent Marker'"
           id="tspan7293">Our Wishes</tspan></tspan></text>
  </g>
  <g
     inkscape:groupmode="layer"
     id="layer5"
     inkscape:label="Text as Path"
     style="display:inline">
    <g
       aria-label="Our Wishes"
       transform="matrix(0.26458333,0,0,0.26458333,-34.045628,-53.687281)"
       id="text1244"
       style="font-size:96px;line-height:1.25;text-align:center;white-space:pre;shape-inside:url(#rect2145);display:inline">
      <path
         d="m 364.2732,940.78268 q -4.01041,0.54687 -7.29166,-0.36458 -3.28125,-0.91146 -5.92448,-2.82552 -2.55208,-1.91407 -4.46614,-4.55729 -1.82292,-2.64323 -3.00781,-5.65104 -0.82032,-6.19792 0.45573,-11.21094 1.27604,-5.10416 3.73697,-9.38801 2.46094,-4.28386 5.5599,-8.02083 3.1901,-3.73698 6.10677,-7.20052 0.63802,0.27344 1.0026,0 0.45573,-0.27344 0.72917,-0.72917 0.36458,-0.45573 0.72916,-0.91146 0.45573,-0.45573 1.00261,-0.63802 0.36458,-0.82031 0.91145,-1.36718 0.63802,-0.54688 1.27604,-1.00261 0.72917,-0.54687 1.27605,-1.09375 0.63802,-0.54687 1.09375,-1.36718 0.91145,-0.1823 1.54947,-0.63803 0.72917,-0.45572 1.27605,-1.0026 0.63802,-0.54687 1.27604,-1.0026 0.63802,-0.45573 1.54948,-0.72917 v -1.18489 q 2.0052,-0.91146 2.91666,-2.00521 0.91146,-1.09375 2.1875,-2.82552 1.0026,-0.0911 1.54948,-0.0911 0.63802,0 1.91406,-0.18229 0.82031,-1.54948 1.54948,-2.27864 0.72917,-0.72917 2.09635,-1.64063 1.36719,0.72917 2.91667,0.91146 1.54948,0.0911 2.82552,1.36719 0.0911,1.09375 0.63802,1.73177 0.54687,0.54687 1.18489,1.09375 0.63802,0.45573 1.27604,1.0026 0.63803,0.54687 0.82032,1.54948 0.45573,0 0.54687,-0.18229 0.18229,-0.18229 0.63802,-0.0911 0.18229,0.72917 0.36459,1.1849 0.18229,0.45573 0.36458,0.82031 0.27344,0.36458 0.45573,0.82031 0.27344,0.45573 0.45573,1.09375 -0.45573,1.09375 -0.82032,2.36979 -0.36458,1.1849 -1.45833,1.64063 0,0.72916 0.54688,0.82031 0.54687,0 0.63802,0.63802 0.0911,0.82031 -0.27344,1.36719 2.55208,4.28385 4.64844,9.02343 2.09635,4.64844 4.73958,8.93229 -0.18229,1.27604 0.0911,2.55208 0.36459,1.1849 0.82031,2.36979 0.54688,1.1849 1.00261,2.36979 0.45573,1.1849 0.63802,2.36979 0.18229,1.54948 0,3.3724 -0.18229,1.73177 -0.72917,3.37239 -0.54687,1.64063 -1.45833,3.09896 -0.91146,1.36719 -2.09635,2.09635 -1.45834,1.82292 -3.64584,3.00781 -2.18749,1.09375 -4.01041,2.64323 -1.27604,0.72917 -2.73437,1.09375 -1.45834,0.27344 -3.00782,0.63802 -1.18489,0.72917 -2.82552,1.45833 -1.64062,0.63803 -3.37239,1.1849 -1.73177,0.54687 -3.46354,0.91146 -1.73177,0.27344 -3.09896,0.0911 -3.28125,1.1849 -6.3802,1.64063 -3.09896,0.45573 -7.29167,-0.45573 z m 1.1849,-33.17707 q -0.91146,2.09635 -2.1875,3.82812 -1.1849,1.64063 -2.36979,3.3724 -1.1849,1.73177 -2.09636,3.73697 -0.82031,1.91407 -0.91145,4.55729 1.82291,1.54948 4.28385,1.91407 2.55208,0.27343 5.19531,0.0911 2.64323,-0.27344 5.28646,-0.72916 2.64322,-0.45573 4.73958,-0.45573 0,-0.82032 0.72916,-0.82032 3.82813,-0.36458 7.10938,-2.09635 3.28125,-1.82292 6.83593,-3.64583 0.45573,-1.09375 1.1849,-1.91406 0.72916,-0.82032 0.82031,-2.36979 -0.45573,-0.82032 -0.63802,-1.36719 -0.0912,-0.54688 -0.0912,-1.64063 -2.36979,-3.28124 -4.10156,-7.10937 -1.73177,-3.91927 -4.01041,-7.38281 -0.1823,0.45573 -0.72917,0.91146 -0.54687,0.45573 -1.1849,-0.18229 -0.27343,0.91146 -0.82031,1.27604 -0.54687,0.27344 -1.27604,0.27344 -0.63802,0 -1.36719,-0.27344 -0.63802,-0.27344 -1.18489,-0.72917 -3.1901,2.55209 -6.38021,4.92188 -3.09895,2.36979 -5.65104,5.55989 -0.45573,0.27344 -0.54687,0.18229 -0.0911,-0.0911 -0.63802,0.0911 z"
         style="font-size:93.3333px;font-family:'Permanent Marker';-inkscape-font-specification:'Permanent Marker'"
         id="path7212" />
      <path
         d="m 463.71327,888.55614 q 0.18229,2.0052 0.63802,3.46354 0.45573,1.45833 1.0026,2.82552 0.45573,1.27604 0.82031,2.55208 0.45573,1.18489 0.63802,2.91666 -0.72916,2.3698 -1.09375,4.375 -0.27343,2.00521 -0.63802,4.19271 -1.45833,3.1901 -2.82552,5.65104 -1.36718,2.46094 -2.1875,4.28385 -0.45572,0.45573 -0.82031,1.09375 -0.27343,0.54688 -0.63802,1.1849 -0.18229,0.27343 -0.45573,0.82031 -0.27343,0.54687 -0.45573,0.72917 l -1.82291,-0.63803 -0.36459,2.27865 -1.27604,0.36458 -0.91145,1.09375 q -1.73177,3.00781 -3.64584,5.10417 -1.91406,2.0052 -4.37499,3.64583 -2.3698,1.54948 -5.46875,2.91666 -3.00781,1.36719 -6.83594,3.00782 -1.54948,-0.1823 -2.73437,-0.1823 -1.09375,-0.0911 -2.09635,-0.18229 -1.73177,0 -4.28386,-0.27343 -0.27343,-0.72917 -0.82031,-1.00261 -0.54687,-0.27344 -1.0026,-0.27344 -1.54948,-0.72916 -2.36979,-2.09635 -0.72917,-1.45833 -1.45834,-3.09896 -0.45573,-1.0026 -0.91145,-1.82291 -0.45573,-0.91146 -1.00261,-1.82292 l 1.54948,-0.45573 -2.00521,-2.1875 q -0.18229,-0.27343 -0.45573,-0.45573 -0.27343,-0.27343 -0.45573,-0.54687 l -0.0911,-1.45833 q -0.27344,-6.28906 -0.27344,-11.48437 0.0911,-5.28646 1.45833,-9.38802 v -1.0026 q 0.27344,-2.00521 0.54688,-3.28125 0.27344,-1.36719 0.45573,-2.55209 0.27344,-2.0052 0.82031,-3.73697 1.27604,-0.27344 1.91406,-1.00261 0.63802,-0.82031 1.09375,-1.45833 1.27604,-0.0911 1.73177,0.36458 0.45573,0.45573 0.91146,1.45834 0.45573,0.82031 1.09375,1.82291 0.72917,1.00261 2.09635,1.54948 0.18229,0.72917 0.45573,1.54948 0.36458,0.72917 0.72917,1.64062 0.72916,1.54948 1.27604,3.28125 0.63802,1.64063 0.72917,3.1901 -0.91146,1.73178 -1.45834,4.01042 -0.45573,2.27865 -0.63802,4.64844 -0.0911,2.27864 0.0911,4.46614 0.27344,2.09635 0.82031,3.55469 l 0.54687,1.18489 1.54948,-0.18229 q 2.73438,-0.72917 4.92188,-1.54948 2.27864,-0.91146 4.1927,-2.09635 1.91407,-1.1849 3.64584,-2.73438 1.73177,-1.64062 3.64583,-3.73697 1.91406,-2.09636 3.28125,-4.73959 1.45833,-2.73437 2.36979,-5.65103 1.0026,-2.91667 1.45833,-5.74219 0.54687,-2.91667 0.72917,-5.46875 1.54947,-0.54687 1.54947,-2.1875 l -0.18229,-1.0026 q -0.36458,-0.54688 0,-1.27604 0.54688,-1.73177 2.55209,-2.64323 1.45833,0.91146 2.55208,2.00521 1.18489,1.09375 2.1875,2.1875 z"
         style="font-size:93.3333px;font-family:'Permanent Marker';-inkscape-font-specification:'Permanent Marker'"
         id="path7214" />
      <path
         d="m 479.2992,930.93893 q -1.00261,3.64583 -1.82292,5.5599 -0.72917,1.82291 -2.27864,3.82812 -1.1849,-0.18229 -1.64063,0.27344 -0.45573,0.45573 -1.0026,0.82031 -0.82031,0.18229 -1.1849,0 -0.36458,-0.18229 -0.63802,-0.45573 -0.27344,-0.18229 -0.72917,-0.45573 -0.36458,-0.18229 -1.18489,-0.18229 -0.18229,-0.72917 -0.45573,-1.36719 -0.18229,-0.63802 -1.18489,-0.45573 0.18229,-0.72916 0.0911,-1.18489 -0.0911,-0.54688 -0.27344,-0.91146 -0.0911,-0.45573 -0.18229,-0.82031 -0.0911,-0.45573 0.0911,-1.09375 -0.45573,0 -0.72917,-0.63802 -0.27344,-0.63802 -0.63802,-1.27604 0.27344,-1.64063 0.54688,-3.09896 0.27343,-1.45833 0.63802,-2.73437 0.45573,-1.27605 0.72916,-2.55209 0.27344,-1.27604 -0.27343,-2.64322 0.36458,0.27343 0.54687,-0.0911 0.18229,-0.45573 0.27344,-1.09375 0.0911,-0.72917 0.0911,-1.36719 0,-0.72916 -0.0911,-1.18489 0.91146,-2.36979 1.45833,-4.83073 0.63802,-2.55208 1.09375,-5.01302 0.54687,-2.46094 1.09375,-4.83073 0.54687,-2.36979 1.45833,-4.37499 1.00261,-0.1823 2.1875,0.27343 1.27604,0.36459 1.54948,1.00261 2.36979,-1.82292 4.19271,-4.375 1.82291,-2.64323 3.73697,-5.10417 1.91407,-2.46093 4.19271,-4.37499 2.36979,-1.91407 5.92448,-2.27865 1.82291,1.36719 4.01041,2.82552 2.27865,1.36719 3.73698,3.64583 0.72917,0.36459 1.1849,0.82031 0.54687,0.36459 1.27604,0.82032 v 1.09375 q 1.09375,1.0026 1.73177,2.36979 0.72916,1.27604 1.27604,2.82552 0.54687,1.45833 1.09375,3.00781 0.54687,1.45833 1.27604,2.82552 -0.18229,0.45573 -0.18229,0.82031 0,0.27344 0.0911,0.63802 0.1823,0.36458 0.27344,0.72917 0.0912,0.36458 0,1.0026 -0.27344,4.01042 -2.64323,6.47135 -2.27864,2.46094 -5.55989,4.10156 -3.28125,1.54948 -7.01823,2.64323 -3.73698,1.09375 -6.74479,2.36979 0,0.36459 0.27344,0.36459 0.36458,0 0.27344,0.45572 2.1875,1.36719 3.46354,2.1875 1.27604,0.82032 2.36979,1.36719 1.18489,0.54688 2.46094,1.0026 1.36718,0.36459 3.73697,0.91146 2.36979,0.54688 3.64584,0.91146 1.36718,0.27344 2.46093,0.54688 1.09375,0.18229 2.1875,0.36458 1.1849,0.0911 3.28125,0.27344 0.82031,0.82031 1.36719,2.0052 0.63802,1.09375 0.82031,2.27865 0.18229,1.09375 0.0911,2.1875 -0.0911,1.0026 -0.63803,1.64062 0.0912,0.27344 0.36459,0.27344 0.36458,-0.0912 0.72916,0 -0.54687,0.36458 -0.91145,0.91146 -0.36459,0.54687 -0.72917,1.09375 -0.36458,0.54687 -0.82031,0.91145 -0.45573,0.45573 -1.27604,0.54688 -2.82552,1.09375 -7.10938,0.0911 -4.28385,-0.91146 -10.84635,-3.46354 -3.28124,-1.27605 -5.3776,-2.1875 -2.00521,-1.00261 -3.55468,-1.91407 -1.45834,-1.0026 -2.73438,-2.09635 -1.18489,-1.09375 -2.91666,-2.64323 z m 13.03385,-31.26301 q -1.00261,1.45834 -2.27865,2.64323 -1.18489,1.1849 -2.36979,2.46094 -1.09375,1.18489 -2.00521,2.73437 -0.91146,1.45834 -1.27604,3.46354 3.1901,-0.36458 6.65364,-1.73177 3.46354,-1.45833 6.5625,-2.73437 -0.36458,-2.82552 -2.00521,-4.55729 -1.54947,-1.73177 -3.28124,-2.27865 z"
         style="font-size:93.3333px;font-family:'Permanent Marker';-inkscape-font-specification:'Permanent Marker'"
         id="path7216" />
      <path
         d="m 556.86428,933.94674 q -0.45573,-1.0026 -0.91145,-1.91406 -0.45573,-0.91146 -0.91146,-1.64062 -1.09375,-2.1875 -1.91406,-3.91927 -0.82032,-1.73177 -1.54948,-4.01042 0.27343,-1.54948 0.91145,-5.19531 0.72917,-3.64583 1.64063,-7.92968 0.91146,-4.375 1.91406,-8.84114 1.09375,-4.46615 2.1875,-7.65625 1.0026,-2.82552 2.1875,-6.01562 1.27604,-3.19011 2.73437,-5.83333 1.54948,-2.73438 3.28125,-4.64844 1.73177,-1.91406 3.73698,-2.27865 0.54687,0.72917 1.1849,1.1849 0.63802,0.36458 1.18489,0.54687 1.54948,2.1875 3.00781,3.73698 1.45833,1.45834 3.46354,2.91667 -0.54687,2.73437 -1.64062,6.10677 -1.00261,3.28125 -2.1875,6.65364 -1.09375,3.37239 -2.1875,6.5625 -1.09375,3.09895 -1.73177,5.3776 -0.54688,1.82292 -1.09375,4.19271 -0.45573,2.0052 -1.0026,4.83072 -0.45573,2.82552 -0.91146,6.19792 1.27604,-0.36459 2.82552,-1.45834 1.64062,-1.09374 3.00781,-2.27864 1.64062,-1.36719 3.1901,-2.91667 2.09636,-2.09635 3.55469,-3.82812 1.45833,-1.73177 2.64323,-3.55469 1.27604,-1.91406 2.55208,-4.10156 1.36719,-2.27864 3.1901,-5.3776 1.64063,-2.64323 3.3724,-5.65104 1.82291,-3.00781 3.64583,-5.74218 1.82291,-2.73438 3.55468,-5.01302 1.73177,-2.36979 3.19011,-3.64583 1.0026,1.0026 2.27864,2.09635 1.36719,1.09375 2.91667,1.54948 0.63802,1.0026 1.18489,1.82291 0.63802,0.72917 1.1849,1.45834 0.72916,1.0026 1.27604,1.82291 0.63802,0.82031 1.09375,1.82292 -0.0911,0.72917 -0.36458,1.91406 -0.1823,1.1849 -0.45573,2.64323 -0.27344,1.36719 -0.63802,2.82552 -0.27344,1.45833 -0.54688,2.82552 -0.91146,4.10156 -1.36719,6.19791 -0.45572,2.09636 -0.63802,3.28125 -0.18229,1.1849 -0.27343,2.00521 0,0.82031 0,2.27864 0,1.09375 0.18229,2.1875 0.18229,1.00261 0.36458,2.09636 0.27344,1.0026 0.91146,1.91406 l 4.375,-3.3724 q 1.82291,-1.36718 3.46354,-3.82812 1.73177,-2.55208 3.28125,-5.74219 1.64062,-3.28124 3.1901,-7.01822 1.54948,-3.82813 3.09896,-7.83854 1.09375,-2.91667 2.1875,-5.74219 1.18489,-2.91666 2.36979,-5.46874 1.18489,-2.64323 2.27864,-4.73959 1.1849,-2.18749 2.27865,-3.64583 2.46093,1.54948 4.1927,3.09896 1.82292,1.54948 3.09896,3.46354 1.36719,1.82292 2.09635,4.28385 0.82032,2.36979 1.1849,5.65104 -2.00521,3.82813 -3.73698,7.83854 -1.73177,4.01042 -3.46354,8.11198 -2.1875,5.28645 -4.55729,10.57291 -2.27864,5.19531 -5.10416,9.93489 -2.82552,4.73958 -6.38021,8.75 -3.46354,3.91927 -8.02083,6.65364 -1.27604,-0.27344 -2.1875,-0.27344 -1.0026,0 -1.73177,0.27344 -0.63802,0.27344 -1.18489,0.72917 -3.73698,-1.73177 -6.01563,-5.10417 -2.27864,-3.46354 -4.46614,-7.65624 -0.27344,-0.63802 -0.63802,-1.1849 -0.27344,-0.63802 -0.63802,-1.27604 l -1.54948,-2.82552 -0.91146,-1.73177 -1.27604,1.1849 -1.91406,1.73177 -1.09375,1.09374 q -2.82552,2.64323 -5.74219,5.19532 -2.91666,2.46093 -6.10677,4.55729 -3.1901,2.0052 -6.83593,3.28124 -3.55469,1.27605 -7.65625,1.36719 -0.72916,-0.36458 -1.36718,-0.63802 -0.54688,-0.27344 -1.09375,-0.54687 -2.09636,-1.00261 -3.46354,-1.91407 -1.36719,-0.91145 -3.19011,-2.82552 z"
         style="font-size:93.3333px;font-family:'Permanent Marker';-inkscape-font-specification:'Permanent Marker'"
         id="path7218" />
      <path
         d="m 661.86423,934.03789 q 0.45573,2.73437 -0.36459,4.28385 -0.72916,1.54948 -2.18749,2.27865 -1.36719,0.82031 -3.19011,0.91146 -1.82291,0.0911 -3.46354,-0.1823 -0.91146,-1.27604 -1.64062,-3.1901 -0.72917,-1.91406 -1.36719,-3.91927 -0.63802,-2.09635 -1.18489,-4.10156 -0.45573,-2.00521 -0.82032,-3.55469 0.45573,-1.09375 0.54688,-2.46093 0.18229,-1.45833 0.18229,-2.91667 0.0911,-1.45833 0.0911,-2.91666 0.0911,-1.54948 0.27343,-2.91667 0.63802,-3.82812 1.82292,-7.29166 1.27604,-3.46354 2.00521,-7.20052 0.18229,-0.82031 -0.1823,-1.54948 -0.27343,-0.72917 -0.0911,-1.36719 0.0911,-0.36458 0.54687,-0.45573 0.45573,-0.18229 0.54688,-0.63802 0.27344,-1.0026 0.0911,-1.64062 -0.0911,-0.63802 0.36459,-1.54948 0.45573,-0.72917 1.09375,-2.09635 0.72916,-1.45833 0.54687,-3.00781 0.82031,-0.54688 1.54948,-1.27604 0.72917,-0.72917 1.45833,-1.27605 0.82032,-0.63802 1.73177,-1.09375 1.00261,-0.45572 2.36979,-0.45572 0.72917,0.91145 0.91146,2.0052 0.27344,1.09375 0.45573,2.1875 0.27344,1.09375 0.72917,2.09636 0.45573,0.91145 1.54948,1.45833 0,0.72916 0,1.82291 0,1.09375 0.0911,2.1875 0.0911,1.00261 0.36458,1.91407 0.36459,0.82031 1.09375,1.09374 -1.64062,4.375 -3.09895,8.65886 -1.36719,4.28385 -2.27865,8.65885 -0.91146,4.28385 -1.18489,8.65885 -0.18229,4.375 0.63802,8.84114 z"
         style="font-size:93.3333px;font-family:'Permanent Marker';-inkscape-font-specification:'Permanent Marker'"
         id="path7220" />
      <path
         d="m 673.89549,899.40249 q 0.63803,-1.91407 2.00521,-3.28125 1.45833,-1.36719 3.09896,-2.27865 1.73177,-1.0026 3.55469,-1.64062 1.82291,-0.63802 3.46354,-1.09375 3.64583,-1.54948 7.74739,-2.91667 4.19271,-1.45833 8.47656,-2.55208 4.375,-1.09375 8.93229,-1.36719 4.55729,-0.36458 9.5703,1.09375 0.27344,0.91146 0.82032,1.73177 0.54687,0.82032 1.09375,1.64063 0.63802,0.82031 1.09375,1.64062 0.45573,0.72917 0.54687,1.54948 0.91146,0.82031 1.45833,1.82292 0.54688,0.91145 0.1823,2.46093 -0.91146,0.72917 -1.82292,1.36719 -0.82031,0.54688 -1.82292,1.0026 -3.37239,-0.82031 -6.83593,-0.54687 -3.46354,0.27344 -6.19792,0.45573 -0.82031,-0.82031 -2.0052,-0.82031 -1.09375,0 -2.36979,0.36458 -1.1849,0.36458 -2.46094,0.72917 -1.1849,0.36458 -2.27865,0.18229 -0.91145,0.72916 -2.27864,1.0026 -1.27604,0.18229 -2.82552,0.36458 -0.0912,0.45573 0.18229,0.63803 0.27344,0.0911 0.0911,0.54687 0.54687,0.63802 1.36718,0.91146 0.91146,0.27344 1.82292,0.54687 1.0026,0.27344 1.73177,0.72917 0.72917,0.36458 1.0026,1.27604 1.36719,0 2.36979,0.63802 1.00261,0.63802 1.64063,1.54948 0.63802,0.91146 0.91146,2.00521 0.36458,1.0026 0.36458,1.82291 0.27344,0.72917 0.63802,0.63802 0.36458,-0.0911 0.82031,0.36459 0.27344,1.18489 1.36719,2.46093 1.09375,1.1849 1.73177,2.64323 0.18229,2.27865 0.27344,4.10156 0.0911,1.73177 -0.63802,3.55469 -1.36719,3.37239 -3.82813,6.01562 -2.36979,2.64323 -5.46874,4.73958 -3.00782,2.00521 -6.47136,3.46354 -3.46354,1.45834 -6.74479,2.46094 -0.36458,-0.0911 -0.72916,0 -0.36458,0.0911 -0.18229,-0.45573 -0.72917,0.63802 -1.64063,0.82031 -0.82031,0.18229 -1.82291,0.0912 -1.00261,0 -2.09636,-0.0912 -1.0026,-0.0911 -1.91406,0.0912 -0.63802,-0.63802 -1.18489,-1.27604 -0.45573,-0.54688 -0.72917,-1.45834 -0.45573,0 -0.45573,-0.45572 0.0911,-0.45573 -0.27344,-0.45573 0.54688,-0.91146 0.45573,-1.00261 0,-0.18229 -0.27344,-0.27343 -0.18229,-0.0911 -0.36458,-0.1823 -0.18229,-0.18229 -0.0911,-0.45573 0.36458,-0.72916 0.27343,-1.64062 -0.0911,-1.0026 -0.18229,-2.00521 -0.0911,-1.0026 0.0911,-1.91406 0.27343,-0.91146 1.36718,-1.45833 3.09896,0.36458 5.83334,-0.18229 2.82552,-0.63802 5.28645,-1.73177 2.46094,-1.09375 4.64844,-2.36979 2.27864,-1.27605 4.46614,-2.27865 0.27344,-0.82031 0.72917,-1.36719 0.54687,-0.54687 1.09375,-1.0026 0.54687,-0.45573 1.0026,-1.0026 0.45573,-0.54688 0.63802,-1.36719 0.0911,-0.63802 -0.36458,-0.72917 -0.36458,-0.18229 -0.36458,-0.72916 l -1.00261,-0.27344 q -1.73177,-1.0026 -3.91927,-1.64063 -2.1875,-0.72916 -3.73698,-1.54947 -1.0026,0.54687 -1.91406,0.27343 -0.82031,-0.27343 -2.1875,-0.54687 -3.09895,-0.18229 -6.01562,-0.63802 -2.82552,-0.45573 -5.46875,-1.64063 -0.18229,-0.45573 -0.45573,-0.82031 -0.27343,-0.36458 -1.0026,-0.18229 -0.54687,-0.72917 -1.09375,-1.36719 -0.54687,-0.72916 -1.0026,-1.54948 0.18229,-1.09375 0.27343,-1.82291 0.0911,-0.82031 -0.54687,-1.54948 0.36458,-1.1849 0.54687,-1.91406 0.1823,-0.72917 0,-1.91406 z"
         style="font-size:93.3333px;font-family:'Permanent Marker';-inkscape-font-specification:'Permanent Marker'"
         id="path7222" />
      <path
         d="m 762.48919,931.57695 q 0.18229,2.36979 -0.54688,3.91927 -0.72916,1.54948 -2.00521,2.64323 -1.27604,1.09375 -2.91666,1.73177 -1.64063,0.63802 -3.1901,1.1849 -0.72917,-0.45573 -1.45834,-0.91146 -0.63802,-0.54688 -1.54948,-0.82031 -1.18489,-2.1875 -2.27864,-3.82813 -1.09375,-1.73177 -1.0026,-3.91927 0,-0.0911 0.0911,-1.0026 0.18229,-0.91146 0.36458,-2.00521 0.27344,-1.09375 0.36459,-2.00521 0.18229,-1.0026 0.18229,-1.09375 -2.09635,0.1823 -4.375,0.91146 -2.27864,0.72917 -4.46614,1.73177 -2.09636,1.00261 -4.01042,2.00521 -1.82291,1.0026 -3.00781,1.73177 0,0.27344 -0.36458,1.36719 -0.36459,1.0026 -0.91146,2.1875 -0.54688,1.09375 -1.1849,2.0052 -0.63802,0.91146 -1.27604,0.91146 0.0911,0.27344 0.27344,0.54688 0.18229,0.27343 0,0.72916 -1.27604,0.36459 -2.27864,0.91146 -1.00261,0.63802 -2.09636,1.00261 -1.09375,0.45572 -2.36979,0.45572 -1.27604,0 -3.00781,-0.91145 0,-0.54688 -0.45573,-0.91146 -0.45573,-0.45573 -1.0026,-0.72917 -0.45573,-0.36458 -0.82032,-0.54687 -0.36458,-0.27344 -0.36458,-0.45573 -0.45573,0.0911 -0.36458,-0.63802 0.0911,-0.72917 0.72916,-0.36459 -1.0026,-1.27604 -1.27604,-2.18749 -0.18229,-1.00261 -1.0026,-2.46094 0.18229,-0.18229 0.36458,-0.63802 0.0911,-0.45573 0.18229,-0.82031 0.0911,-0.36459 0.27344,-0.54688 0.18229,-0.18229 0.45573,0.0912 -0.18229,-0.82032 0,-1.36719 0.18229,-0.54687 0.36458,-1.0026 0.1823,-0.45573 0.27344,-0.91146 0.0911,-0.45573 -0.27344,-1.00261 1.45834,-2.0052 1.91407,-4.28385 0.45572,-2.36979 0.54687,-4.28385 0.63802,-0.63802 1.09375,-1.82292 0.54688,-1.18489 0.82031,-2.36979 0.27344,-1.27604 0.18229,-2.36979 0,-1.18489 -0.27343,-1.91406 0.0911,-0.45573 1.0026,-0.27344 0.54688,-3.00781 0.72917,-6.74479 0.27343,-3.82812 0.82031,-7.20051 0.54687,-3.46354 1.82291,-6.01563 1.27605,-2.64323 4.10157,-3.46354 0.54687,1.91406 1.36718,3.3724 0.91146,1.45833 1.91406,2.82552 1.09375,1.27604 2.09636,2.64322 1.09375,1.36719 2.00521,3.09896 -0.0911,1.73177 -0.36459,4.01042 -0.27343,2.27864 -0.72916,4.64843 -0.36459,2.36979 -0.82032,4.55729 -0.36458,2.1875 -0.72916,3.73698 0.0911,0.45573 0.45573,0.54688 0.45573,0.0911 0.18229,0.82031 2.1875,-0.54688 4.55729,-1.00261 2.36979,-0.45573 4.73958,-1.0026 2.36979,-0.54687 4.55729,-1.1849 2.27864,-0.72916 4.19271,-1.73177 0.45573,-3.55468 1.18489,-7.10937 0.72917,-3.55468 0.18229,-7.29166 0.45573,-0.36458 0.72917,-0.91146 0.27344,-0.54687 0.91146,-0.72917 -0.45573,-1.73177 -0.36459,-3.64583 0.0911,-1.91406 0.63802,-3.64583 0.63803,-1.73177 1.73178,-2.91667 1.18489,-1.27604 2.82551,-1.64062 1.00261,1.45833 1.73177,3.1901 0.72917,1.64063 1.45834,3.3724 0.82031,1.64062 1.64062,3.1901 0.91146,1.45833 2.27865,2.55208 0.27343,2.64323 0.36458,5.46875 0.18229,2.82552 0.27344,5.74219 -0.72917,3.46354 -1.64063,6.74479 -0.82031,3.1901 -1.18489,6.83593 -0.63802,0.72917 -1.00261,1.64062 -0.36458,0.91146 -0.72916,1.91407 -0.36459,0.91145 -0.82031,1.82291 -0.45573,0.82031 -1.09375,1.45834 0.36458,1.09374 0.0911,2.09635 -0.18229,0.91146 0.54688,2.27864 z"
         style="font-size:93.3333px;font-family:'Permanent Marker';-inkscape-font-specification:'Permanent Marker'"
         id="path7224" />
      <path
         d="m 821.0048,889.10301 q 0.0911,0.63802 0,1.00261 0,0.27343 -0.0912,0.54687 0,0.27344 0,0.63802 0,0.27344 0.1823,0.91146 -1.91407,3.09896 -4.46615,4.28385 -2.46094,1.09375 -5.3776,1.64063 -2.91667,0.45572 -6.01562,1.0026 -3.00781,0.54687 -6.01563,2.36979 -1.18489,-0.45573 -2.1875,0 -0.91145,0.45573 -2.73437,0.27344 -0.54687,0.54687 -1.36719,0.82031 -0.82031,0.18229 -1.64062,0.45573 0.36458,0.82031 0.27344,1.73177 0,0.82031 0.27343,1.36719 3.19011,0.27343 7.01823,-0.0911 3.91927,-0.36458 7.65625,-0.45573 0.0911,0.45573 -0.0911,0.63802 -0.18229,0.0911 -0.0911,0.45573 0.63802,0.45573 1.27604,1.1849 0.63802,0.63802 1.27604,1.27604 0.63802,0.63802 1.27604,1.09375 0.72917,0.36458 1.64062,0.27343 0.36459,0.72917 0.45573,1.64063 0.18229,0.82031 -0.18229,1.73177 -1.45833,1.0026 -2.91666,2.09635 -1.45834,1.00261 -3.09896,1.82292 -1.54948,0.82031 -3.3724,1.36718 -1.73177,0.45573 -3.91927,0.36459 -0.45572,0 -0.72916,0 -0.18229,0 -0.54688,-0.27344 -0.72916,0.45573 -2.09635,0.27344 -1.27604,-0.18229 -2.00521,0.27344 -1.0026,-0.45573 -2.46093,-0.36459 -1.36719,0 -2.46094,-0.36458 -1.45833,1.91406 -2.64323,4.10156 -1.18489,2.1875 -2.09635,4.64844 3.09896,0.45572 5.10416,0.36458 2.09636,-0.0911 3.91927,-0.27344 1.82292,-0.27344 3.73698,-0.45573 1.91406,-0.27343 4.83073,-0.18229 1.82291,-1.0026 4.28385,-1.27604 2.55208,-0.36458 4.64844,-1.09375 0.72916,0.27344 1.27604,1.0026 0.54687,0.63802 1.0026,1.27605 0.54688,0.54687 1.09375,1.0026 0.54687,0.45573 1.36719,0.36458 0.36458,0.36459 0.45573,0.91146 0.18229,0.45573 0.27343,0.91146 0.0911,0.45573 0.27344,0.82031 0.27344,0.27344 0.82031,0.18229 -1.36718,3.00781 -3.1901,4.64844 -1.73177,1.54948 -4.01042,2.36979 -2.27864,0.82031 -5.10416,1.27604 -2.73437,0.45573 -6.10677,1.09375 -0.82031,0.18229 -1.36719,-0.0912 -0.54687,-0.18229 -1.27604,-0.18229 -2.09635,0.45573 -5.01302,0.82031 -2.91666,0.36459 -5.92447,0.27344 -3.00781,-0.0911 -5.74219,-0.82031 -2.73437,-0.63802 -4.46614,-2.36979 -0.72917,-0.63802 -1.00261,-1.45833 -0.18229,-0.91146 -1.18489,-1.36719 -0.0911,-1.1849 -0.36458,-2.64323 -0.27344,-1.45833 -0.54688,-3.00781 -0.27344,-1.64063 -0.45573,-3.1901 -0.0911,-1.54948 0.18229,-2.82552 0.27344,-1.36719 1.09375,-2.46094 0.91146,-1.09375 0.63802,-2.36979 0.45573,-0.0911 0.54688,-0.45573 0.0911,-0.45573 0.72917,-0.36458 0.54687,-1.64063 1.18489,-3.09896 0.63802,-1.45833 1.27604,-2.82552 0.72917,-1.36719 1.36719,-2.73437 0.72917,-1.45834 1.36719,-3.19011 -1.27605,-1.18489 -1.91407,-2.55208 -0.54687,-1.45833 -0.82031,-2.82552 -0.27344,-1.45833 -0.45573,-2.91666 -0.18229,-1.54948 -0.63802,-3.09896 0.91146,-1.36719 2.1875,-2.1875 1.36719,-0.91146 2.91667,-1.45833 1.54948,-0.54688 3.37239,-0.91146 1.82292,-0.36458 3.82812,-0.82031 3.64584,-1.1849 6.47136,-1.82292 2.91666,-0.63802 5.65104,-1.0026 2.82552,-0.45573 5.83333,-0.82032 3.00781,-0.36458 6.83593,-1.09375 0.82031,0.82032 1.54948,0.82032 0.36458,-0.82032 0.82031,-0.45573 0.54688,0.27344 0.45573,-0.54688 0.91146,1.54948 2.27865,2.64323 1.45833,1.0026 3.1901,1.73177 z"
         style="font-size:93.3333px;font-family:'Permanent Marker';-inkscape-font-specification:'Permanent Marker'"
         id="path7226" />
      <path
         d="m 820.27562,899.40249 q 0.63802,-1.91407 2.00521,-3.28125 1.45833,-1.36719 3.09896,-2.27865 1.73177,-1.0026 3.55468,-1.64062 1.82292,-0.63802 3.46354,-1.09375 3.64583,-1.54948 7.7474,-2.91667 4.1927,-1.45833 8.47655,-2.55208 4.375,-1.09375 8.93229,-1.36719 4.55729,-0.36458 9.57031,1.09375 0.27344,0.91146 0.82031,1.73177 0.54688,0.82032 1.09375,1.64063 0.63802,0.82031 1.09375,1.64062 0.45573,0.72917 0.54688,1.54948 0.91146,0.82031 1.45833,1.82292 0.54688,0.91145 0.18229,2.46093 -0.91146,0.72917 -1.82291,1.36719 -0.82032,0.54688 -1.82292,1.0026 -3.37239,-0.82031 -6.83593,-0.54687 -3.46354,0.27344 -6.19792,0.45573 -0.82031,-0.82031 -2.00521,-0.82031 -1.09375,0 -2.36979,0.36458 -1.18489,0.36458 -2.46093,0.72917 -1.1849,0.36458 -2.27865,0.18229 -0.91146,0.72916 -2.27864,1.0026 -1.27604,0.18229 -2.82552,0.36458 -0.0912,0.45573 0.18229,0.63803 0.27344,0.0911 0.0911,0.54687 0.54688,0.63802 1.36719,0.91146 0.91146,0.27344 1.82292,0.54687 1.0026,0.27344 1.73177,0.72917 0.72916,0.36458 1.0026,1.27604 1.36719,0 2.36979,0.63802 1.00261,0.63802 1.64063,1.54948 0.63802,0.91146 0.91145,2.00521 0.36459,1.0026 0.36459,1.82291 0.27343,0.72917 0.63802,0.63802 0.36458,-0.0911 0.82031,0.36459 0.27344,1.18489 1.36719,2.46093 1.09375,1.1849 1.73177,2.64323 0.18229,2.27865 0.27343,4.10156 0.0911,1.73177 -0.63802,3.55469 -1.36718,3.37239 -3.82812,6.01562 -2.36979,2.64323 -5.46875,4.73958 -3.00781,2.00521 -6.47135,3.46354 -3.46354,1.45834 -6.74479,2.46094 -0.36458,-0.0911 -0.72916,0 -0.36459,0.0911 -0.1823,-0.45573 -0.72916,0.63802 -1.64062,0.82031 -0.82031,0.18229 -1.82292,0.0912 -1.0026,0 -2.09635,-0.0912 -1.0026,-0.0911 -1.91406,0.0912 -0.63802,-0.63802 -1.1849,-1.27604 -0.45573,-0.54688 -0.72916,-1.45834 -0.45573,0 -0.45573,-0.45572 0.0911,-0.45573 -0.27344,-0.45573 0.54688,-0.91146 0.45573,-1.00261 0,-0.18229 -0.27344,-0.27343 -0.18229,-0.0911 -0.36458,-0.1823 -0.18229,-0.18229 -0.0912,-0.45573 0.36459,-0.72916 0.27344,-1.64062 -0.0911,-1.0026 -0.18229,-2.00521 -0.0912,-1.0026 0.0911,-1.91406 0.27344,-0.91146 1.36719,-1.45833 3.09896,0.36458 5.83333,-0.18229 2.82552,-0.63802 5.28646,-1.73177 2.46094,-1.09375 4.64843,-2.36979 2.27865,-1.27605 4.46615,-2.27865 0.27344,-0.82031 0.72917,-1.36719 0.54687,-0.54687 1.09374,-1.0026 0.54688,-0.45573 1.00261,-1.0026 0.45573,-0.54688 0.63802,-1.36719 0.0911,-0.63802 -0.36458,-0.72917 -0.36459,-0.18229 -0.36459,-0.72916 l -1.0026,-0.27344 q -1.73177,-1.0026 -3.91927,-1.64063 -2.1875,-0.72916 -3.73698,-1.54947 -1.0026,0.54687 -1.91406,0.27343 -0.82031,-0.27343 -2.1875,-0.54687 -3.09896,-0.18229 -6.01562,-0.63802 -2.82552,-0.45573 -5.46875,-1.64063 -0.18229,-0.45573 -0.45573,-0.82031 -0.27344,-0.36458 -1.0026,-0.18229 -0.54688,-0.72917 -1.09375,-1.36719 -0.54688,-0.72916 -1.00261,-1.54948 0.1823,-1.09375 0.27344,-1.82291 0.0911,-0.82031 -0.54687,-1.54948 0.36458,-1.1849 0.54687,-1.91406 0.18229,-0.72917 0,-1.91406 z"
         style="font-size:93.3333px;font-family:'Permanent Marker';-inkscape-font-specification:'Permanent Marker'"
         id="path7228" />
    </g>
  </g>
  <g
     inkscape:groupmode="layer"
     id="layer3"
     inkscape:label="Stars"
     transform="translate(-23.077682,-22.880478)"
     style="display:inline">
    <path
       sodipodi:type="star"
       style="fill:none;stroke:#675491;stroke-width:4.91339;stroke-miterlimit:4;stroke-dasharray:none;stroke-opacity:1"
       id="path10721"
       inkscape:flatsided="false"
       sodipodi:sides="5"
       sodipodi:cx="401.00638"
       sodipodi:cy="576.91254"
       sodipodi:r1="49.643772"
       sodipodi:r2="15.518466"
       sodipodi:arg1="0.84914148"
       sodipodi:arg2="1.2974284"
       inkscape:rounded="0"
       inkscape:randomized="0"
       d="m 433.80244,614.18079 -28.60645,-22.32603 -29.49928,27.76521 12.39343,-34.10548 -35.52206,-19.47556 36.26602,1.24769 7.54544,-39.80177 10.02019,34.87659 40.1854,-5.12329 -30.07319,20.30723 z"
       transform="matrix(0.28483356,0,0,0.29811572,9.4583114,0.46991193)"
       inkscape:transform-center-x="0.40725059"
       inkscape:transform-center-y="-0.69623271" />
    <path
       sodipodi:type="star"
       style="fill:#675491;fill-opacity:1;stroke:#675491;stroke-width:4.91339;stroke-miterlimit:4;stroke-dasharray:none;stroke-opacity:1"
       id="path10723"
       inkscape:flatsided="false"
       sodipodi:sides="5"
       sodipodi:cx="401.00638"
       sodipodi:cy="576.91254"
       sodipodi:r1="56.765308"
       sodipodi:r2="15.518466"
       sodipodi:arg1="1.332187"
       sodipodi:arg2="1.7804739"
       inkscape:rounded="0"
       inkscape:randomized="0"
       d="m 414.42295,632.06955 -16.64666,-39.97843 -45.0814,14.62579 32.87765,-28.18593 -27.84087,-38.35534 36.96615,22.55857 27.8748,-38.33069 -10.0313,42.12788 45.06844,14.66567 -43.16584,3.4779 z"
       transform="matrix(0.26458333,0,0,0.26458333,15.341552,-22.543878)"
       inkscape:transform-center-x="0.37829541"
       inkscape:transform-center-y="-0.61791872" />
    <path
       sodipodi:type="star"
       style="fill:none;stroke:#675491;stroke-width:4.91339;stroke-miterlimit:4;stroke-dasharray:none;stroke-opacity:1"
       id="path10725"
       inkscape:flatsided="false"
       sodipodi:sides="5"
       sodipodi:cx="401.00638"
       sodipodi:cy="576.91254"
       sodipodi:r1="49.643772"
       sodipodi:r2="15.518466"
       sodipodi:arg1="0.84914148"
       sodipodi:arg2="1.2974284"
       inkscape:rounded="0"
       inkscape:randomized="0"
       d="m 433.80244,614.18079 -28.60645,-22.32603 -29.49928,27.76521 12.39343,-34.10548 -35.52206,-19.47556 36.26602,1.24769 7.54544,-39.80177 10.02019,34.87659 40.1854,-5.12329 -30.07319,20.30723 z"
       transform="matrix(0.14628744,0,0,0.13944769,105.19525,17.668976)"
       inkscape:transform-center-x="0.20916219"
       inkscape:transform-center-y="-0.32567211" />
    <path
       sodipodi:type="star"
       style="fill:#000000;fill-opacity:1;stroke:#3a0000;stroke-width:4.91339;stroke-miterlimit:4;stroke-dasharray:none;stroke-opacity:1"
       id="path11041"
       inkscape:flatsided="false"
       sodipodi:sides="5"
       sodipodi:cx="401.00638"
       sodipodi:cy="576.91254"
       sodipodi:r1="49.643772"
       sodipodi:r2="15.518466"
       sodipodi:arg1="0.84914148"
       sodipodi:arg2="1.2974284"
       inkscape:rounded="0"
       inkscape:randomized="0"
       d="m 433.80244,614.18079 -28.60645,-22.32603 -29.49928,27.76521 12.39343,-34.10548 -35.52206,-19.47556 36.26602,1.24769 7.54544,-39.80177 10.02019,34.87659 40.1854,-5.12329 -30.07319,20.30723 z"
       transform="matrix(0.14628744,0,0,0.13944769,79.804278,38.330063)"
       inkscape:transform-center-x="0.20916219"
       inkscape:transform-center-y="-0.32567211" />
    <path
       sodipodi:type="star"
       style="fill:none;stroke:#675491;stroke-width:4.91339;stroke-miterlimit:4;stroke-dasharray:none;stroke-opacity:1"
       id="path11226"
       inkscape:flatsided="false"
       sodipodi:sides="5"
       sodipodi:cx="401.00638"
       sodipodi:cy="576.91254"
       sodipodi:r1="49.643772"
       sodipodi:r2="15.518466"
       sodipodi:arg1="0.84914148"
       sodipodi:arg2="1.2974284"
       inkscape:rounded="0"
       inkscape:randomized="0"
       d="m 433.80244,614.18079 -28.60645,-22.32603 -29.49928,27.76521 12.39343,-34.10548 -35.52206,-19.47556 36.26602,1.24769 7.54544,-39.80177 10.02019,34.87659 40.1854,-5.12329 -30.07319,20.30723 z"
       transform="matrix(0.14628744,0,0,0.13944769,60.306954,11.223474)"
       inkscape:transform-center-x="0.20916219"
       inkscape:transform-center-y="-0.32567211" />
    <path
       sodipodi:type="star"
       style="fill:none;stroke:#675491;stroke-width:4.91339;stroke-miterlimit:4;stroke-dasharray:none;stroke-opacity:1"
       id="path11228"
       inkscape:flatsided="false"
       sodipodi:sides="5"
       sodipodi:cx="401.00638"
       sodipodi:cy="576.91254"
       sodipodi:r1="49.643772"
       sodipodi:r2="15.518466"
       sodipodi:arg1="0.84914148"
       sodipodi:arg2="1.2974284"
       inkscape:rounded="0"
       inkscape:randomized="0"
       d="m 433.80244,614.18079 -28.60645,-22.32603 -29.49928,27.76521 12.39343,-34.10548 -35.52206,-19.47556 36.26602,1.24769 7.54544,-39.80177 10.02019,34.87659 40.1854,-5.12329 -30.07319,20.30723 z"
       transform="matrix(0.14628744,0,0,0.13944769,41.374683,28.183633)"
       inkscape:transform-center-x="0.20916219"
       inkscape:transform-center-y="-0.32567211" />
    <path
       sodipodi:type="star"
       style="fill:none;stroke:#675491;stroke-width:4.91339;stroke-miterlimit:4;stroke-dasharray:none;stroke-opacity:1"
       id="path11230"
       inkscape:flatsided="false"
       sodipodi:sides="5"
       sodipodi:cx="401.00638"
       sodipodi:cy="576.91254"
       sodipodi:r1="49.643772"
       sodipodi:r2="15.518466"
       sodipodi:arg1="0.84914148"
       sodipodi:arg2="1.2974284"
       inkscape:rounded="0"
       inkscape:randomized="0"
       d="m 433.80244,614.18079 -28.60645,-22.32603 -29.49928,27.76521 12.39343,-34.10548 -35.52206,-19.47556 36.26602,1.24769 7.54544,-39.80177 10.02019,34.87659 40.1854,-5.12329 -30.07319,20.30723 z"
       transform="matrix(0.14628744,0,0,0.13944769,29.936436,0.17964895)"
       inkscape:transform-center-x="0.20916219"
       inkscape:transform-center-y="-0.32567211" />
    <path
       sodipodi:type="star"
       style="fill:#675491;fill-opacity:1;stroke:#675491;stroke-width:4.91339;stroke-miterlimit:4;stroke-dasharray:none;stroke-opacity:1"
       id="path11232"
       inkscape:flatsided="false"
       sodipodi:sides="5"
       sodipodi:cx="401.00638"
       sodipodi:cy="576.91254"
       sodipodi:r1="56.765308"
       sodipodi:r2="15.518466"
       sodipodi:arg1="1.332187"
       sodipodi:arg2="1.7804739"
       inkscape:rounded="0"
       inkscape:randomized="0"
       d="m 414.42295,632.06955 -16.64666,-39.97843 -45.0814,14.62579 32.87765,-28.18593 -27.84087,-38.35534 36.96615,22.55857 27.8748,-38.33069 -10.0313,42.12788 45.06844,14.66567 -43.16584,3.4779 z"
       transform="matrix(0.26458333,0,0,0.26458333,37.823624,-78.551846)"
       inkscape:transform-center-x="0.37829541"
       inkscape:transform-center-y="-0.61791872" />
  </g>
</svg>
